<?xml version="1.0" encoding="UTF-8" standalone="no"?>
<!-- Created with Inkscape (http://www.inkscape.org/) -->

<svg xmlns:dc="http://purl.org/dc/elements/1.1/" xmlns:cc="http://creativecommons.org/ns#" xmlns:rdf="http://www.w3.org/1999/02/22-rdf-syntax-ns#" xmlns:svg="http://www.w3.org/2000/svg" xmlns="http://www.w3.org/2000/svg" xmlns:sodipodi="http://sodipodi.sourceforge.net/DTD/sodipodi-0.dtd" xmlns:inkscape="http://www.inkscape.org/namespaces/inkscape" width="900" height="900" viewBox="0 0 900 900" version="1.1" id="svg8" enable-background="new" inkscape:version="0.92.1 r15371" sodipodi:docname="NekoEmblem.svg" inkscape:export-filename="C:\Users\thaky\Downloads\NekoEmblem.png" inkscape:export-xdpi="96" inkscape:export-ydpi="96">
  <title id="title6690">Neko Emblem</title>
  <defs id="defs2" />
  <sodipodi:namedview id="base" pagecolor="black" bordercolor="#666666" borderopacity="1.0" inkscape:pageopacity="0" inkscape:pageshadow="2" inkscape:zoom="0.35" inkscape:cx="400" inkscape:cy="560" inkscape:document-units="px" inkscape:current-layer="layer1" showgrid="false" units="px" />
  <metadata id="metadata5">
    <rdf:RDF>
      <cc:Work rdf:about="">
        <dc:format>image/svg+xml</dc:format>
        <dc:type rdf:resource="http://purl.org/dc/dcmitype/StillImage" />
        <dc:title>Neko Emblem</dc:title>
      </cc:Work>
    </rdf:RDF>
  </metadata>
  <g inkscape:label="Image" inkscape:groupmode="layer" id="layer1" transform="translate(0,-58.874991)">
    <path style="fill:black" d="" id="path6629" inkscape:connector-curvature="0" />
    <path style="display:inline;opacity:1;fill:white;fill-opacity:1;stroke:none;stroke-width:20.7874012;stroke-linecap:butt;stroke-linejoin:round;stroke-miterlimit:4;stroke-dasharray:none;stroke-opacity:1;paint-order:markers stroke fill" d="m 880.69402,148.02245 c 0,0 -95.30284,5.81274 -283.57226,79.13867 a 327.5,325 0 0 0 -67.81055,-7.43359 327.5,325 0 0 0 -229.08789,93.16602 c -9.26655,1.1549 -268.063163,33.80844 -282.199213,81.60546 -6.55299,22.15706 133.251973,216.4383 208.808583,274.53125 a 327.5,325 0 0 0 302.47852,200.69727 327.5,325 0 0 0 327.5,-325 327.5,325 0 0 0 -3.26953,-43.16797 c 0.29601,-1.67633 0.58743,-3.30269 0.88867,-5.03515 37.2193,-214.05417 26.26367,-348.50196 26.26367,-348.50196 z m -22.22265,73.74024 c 13.10565,127.77868 -15.18994,194.96047 -22.54883,209.89843 a 327.5,325 0 0 0 -43.18945,-79.41797 z m -331.66016,42.96484 a 280,280 0 0 1 280,280 280,280 0 0 1 -280,280 280,280 0 0 1 -280,-280 280,280 0 0 1 280,-280 z m -457.269523,184.32031 129.300773,74.75 3.0293,87.88477 c 0,0 -77.6787,-51.14269 -132.330073,-162.63477 z" id="path6643" inkscape:connector-curvature="0" />
  </g>
</svg>
